<?xml version="1.0" standalone="no"?><!DOCTYPE svg PUBLIC "-//W3C//DTD SVG 1.1//EN" "http://www.w3.org/Graphics/SVG/1.1/DTD/svg11.dtd"><svg t="1522228324637" class="icon" style="" viewBox="0 0 1024 1024" version="1.1" xmlns="http://www.w3.org/2000/svg" p-id="7806" xmlns:xlink="http://www.w3.org/1999/xlink" width="200" height="200"><defs><style type="text/css"></style></defs><path d="M450.742857 319.414857l-97.133714 257.170286q18.870857 0 77.970286 1.170286t91.721143 1.170286q10.825143 0 32.548571-1.170286-49.737143-144.603429-105.179429-258.267429zM36.461714 950.857143l1.170286-45.129143q13.165714-4.022857 32.036571-7.168t32.548571-5.997714 28.306286-8.265143 25.453714-16.603429 17.700571-28.891429l135.460571-352.036571 160.036571-413.696 73.142857 0q4.534857 7.972571 6.290286 11.995429l117.174857 274.285714q18.870857 44.544 60.562286 147.163429t65.170286 156.891429q8.557714 19.456 33.133714 82.578286t41.179429 96.256q11.410286 25.746286 19.968 32.548571 10.825143 8.557714 50.322286 16.822857t47.981714 11.702857q3.437714 21.723429 3.437714 32.548571 0 2.267429-0.292571 7.460571t-0.292571 7.460571q-35.986286 0-108.544-4.534857t-109.129143-4.534857q-43.446857 0-122.88 4.022857t-101.741714 4.534857q0-24.576 2.267429-44.544l74.825143-16.018286q0.585143 0 7.168-1.462857t8.850286-1.974857 8.265143-2.56 8.557714-3.730286 6.290286-4.534857 5.12-6.290286 1.462857-7.972571q0-9.142857-17.700571-55.149714t-41.179429-101.449143-23.990857-57.124571l-257.170286-1.170286q-14.848 33.133714-43.739429 111.689143t-28.891429 92.891429q0 12.580571 7.972571 21.430857t24.868571 13.970286 27.721143 7.68 32.548571 4.827429 23.405714 2.267429q0.585143 10.825143 0.585143 33.133714 0 5.12-1.170286 15.433143-33.133714 0-99.693714-5.705143t-99.693714-5.705143q-4.534857 0-15.140571 2.267429t-12.288 2.267429q-45.714286 7.972571-107.446857 7.972571z" p-id="7807"></path></svg>